HIERARCHY
ROOT Hips
{
	OFFSET 0.00000 0.00000 0.00000
	CHANNELS 6 Xposition Yposition Zposition Zrotation Yrotation Xrotation 
	JOINT LHipJoint
	{
		OFFSET 0 0 0
		CHANNELS 3 Zrotation Yrotation Xrotation
		JOINT LeftUpLeg
		{
			OFFSET 1.66553 -1.82942 0.76350
			CHANNELS 3 Zrotation Yrotation Xrotation
			JOINT LeftLeg
			{
				OFFSET 2.41740 -6.64177 0.00000
				CHANNELS 3 Zrotation Yrotation Xrotation
				JOINT LeftFoot
				{
					OFFSET 2.71614 -7.46254 0.00000
					CHANNELS 3 Zrotation Yrotation Xrotation
					JOINT LeftToeBase
					{
						OFFSET 0.08005 -0.21993 1.82495
						CHANNELS 3 Zrotation Yrotation Xrotation
						End Site
						{
							OFFSET 0.00000 -0.00000 0.93441
						}
					}
				}
			}
		}
	}
	JOINT RHipJoint
	{
		OFFSET 0 0 0
		CHANNELS 3 Zrotation Yrotation Xrotation
		JOINT RightUpLeg
		{
			OFFSET -1.63725 -1.82942 0.76350
			CHANNELS 3 Zrotation Yrotation Xrotation
			JOINT RightLeg
			{
				OFFSET -2.40538 -6.60872 0.00000
				CHANNELS 3 Zrotation Yrotation Xrotation
				JOINT RightFoot
				{
					OFFSET -2.73312 -7.50919 0.00000
					CHANNELS 3 Zrotation Yrotation Xrotation
					JOINT RightToeBase
					{
						OFFSET -0.15567 -0.42769 1.93504
						CHANNELS 3 Zrotation Yrotation Xrotation
						End Site
						{
							OFFSET -0.00000 -0.00000 1.00100
						}
					}
				}
			}
		}
	}
	JOINT LowerBack
	{
		OFFSET 0 0 0
		CHANNELS 3 Zrotation Yrotation Xrotation
		JOINT Spine
		{
			OFFSET 0.00326 2.30118 -0.13017
			CHANNELS 3 Zrotation Yrotation Xrotation
			JOINT Spine1
			{
				OFFSET 0.02887 2.30677 0.00834
				CHANNELS 3 Zrotation Yrotation Xrotation
				JOINT Neck
				{
					OFFSET 0 0 0
					CHANNELS 3 Zrotation Yrotation Xrotation
					JOINT Neck1
					{
						OFFSET 0.12946 1.68326 0.00713
						CHANNELS 3 Zrotation Yrotation Xrotation
						JOINT Head
						{
							OFFSET -0.24364 1.67243 -0.16079
							CHANNELS 3 Zrotation Yrotation Xrotation
							End Site
							{
								OFFSET -0.09229 1.70819 -0.06383
							}
						}
					}
				}
				JOINT LeftShoulder
				{
					OFFSET 0 0 0
					CHANNELS 3 Zrotation Yrotation Xrotation
					JOINT LeftArm
					{
						OFFSET 3.28104 0.69567 -0.00556
						CHANNELS 3 Zrotation Yrotation Xrotation
						JOINT LeftForeArm
						{
							OFFSET 5.70706 -0.00000 -0.00000
							CHANNELS 3 Zrotation Yrotation Xrotation
							JOINT LeftHand
							{
								OFFSET 3.33243 -0.00000 0.00000
								CHANNELS 3 Zrotation Yrotation Xrotation
								JOINT LeftFingerBase
								{
									OFFSET 0 0 0
									CHANNELS 3 Zrotation Yrotation Xrotation
									JOINT LeftHandIndex1
									{
										OFFSET 0.79269 -0.00000 0.00000
										CHANNELS 3 Zrotation Yrotation Xrotation
										End Site
										{
											OFFSET 0.63909 -0.00000 0.00000
										}
									}
								}
								JOINT LThumb
								{
									OFFSET 0 0 0
									CHANNELS 3 Zrotation Yrotation Xrotation
									End Site
									{
										OFFSET 0.64884 -0.00000 0.64884
									}
								}
							}
						}
					}
				}
				JOINT RightShoulder
				{
					OFFSET 0 0 0
					CHANNELS 3 Zrotation Yrotation Xrotation
					JOINT RightArm
					{
						OFFSET -3.40955 0.64424 0.14010
						CHANNELS 3 Zrotation Yrotation Xrotation
						JOINT RightForeArm
						{
							OFFSET -5.88176 -0.00000 -0.00000
							CHANNELS 3 Zrotation Yrotation Xrotation
							JOINT RightHand
							{
								OFFSET -3.28156 -0.00000 0.00000
								CHANNELS 3 Zrotation Yrotation Xrotation
								JOINT RightFingerBase
								{
									OFFSET 0 0 0
									CHANNELS 3 Zrotation Yrotation Xrotation
									JOINT RightHandIndex1
									{
										OFFSET -0.86313 -0.00000 0.00000
										CHANNELS 3 Zrotation Yrotation Xrotation
										End Site
										{
											OFFSET -0.69587 -0.00000 0.00000
										}
									}
								}
								JOINT RThumb
								{
									OFFSET 0 0 0
									CHANNELS 3 Zrotation Yrotation Xrotation
									End Site
									{
										OFFSET -0.70650 -0.00000 0.70650
									}
								}
							}
						}
					}
				}
			}
		}
	}
}
MOTION
Frames: 6
Frame Time: 0.00694444
0.00 0.00 0.00 0 0 0 0 0 0 -21 0 0 0 0 0 0 0 0 0 0 0 0 0 0 21 0 0 0 0 0 0 0 0 0 0 0 0 0 0 0 0 0 0 0 0 0 0 -16 0 0 21 0 0 11 0 0 0 -8 0 0 0 0 0 0 0 0 0 0 0 0 0 0 0 0 0 0 0 0 8 0 0 0 0 0 0 0 0 0 0 0 0 0 0 0 0 0
0.00 0.00 0.00 -3.4118 5.5019 -3.1884 0.0000 0.0000 0.0000 -15.9343 -0.6076 -12.1034 3.1481 10.9310 32.0474 1.3234 2.5600 -22.7877 1.3282 -7.2982 -20.6018 0.0000 0.0000 0.0000 16.1976 -1.4190 -8.1568 -2.4074 -9.6676 27.9067 -1.8008 -2.8026 -26.4878 -2.0134 -8.8939 25.4639 1.4360 -0.1920 8.4547 -0.1352 -0.0967 -3.3923 -0.9360 -0.1283 -8.3434 8.5206 -2.8671 -6.4611 -13.6730 -2.8897 15.5743 -5.9581 -1.8903 5.3384 -0.0000 -0.0000 0.0000 -66.9150 24.2024 28.7741 18.0241 -28.1880 -4.5606 -0.0000 0.0000 -18.8105 22.7509 18.4025 7.5413 -7.1250 0.0000 -0.0000 -5.3246 49.7434 -0.6243 -0.0000 -0.0000 0.0000 78.0922 -0.1811 43.0033 -23.3023 34.4177 -7.3084 0.0000 0.0000 11.4869 -18.2286 25.5490 -8.0840 7.1250 -0.0000 -0.0000 6.9401 -3.4333 6.5611
0.00 0.00 0.00 -2.9071 22.8086 -2.5450 0.0000 0.0000 0.0000 -9.9847 -9.4482 -13.9933 2.9093 10.5467 30.7661 0.8269 -4.5313 -16.2540 2.4114 -9.6751 -27.9308 0.0000 0.0000 0.0000 22.8542 -9.4555 -10.4206 -2.6223 -10.0570 29.1615 -2.4665 -6.7121 -32.6290 -3.5804 -11.5800 34.2620 6.0678 3.0563 5.0832 0.2528 4.6791 -5.1455 -3.6578 1.9621 -7.8235 12.3560 2.4163 -3.4860 -16.1747 4.2558 11.2420 -6.9497 1.8561 4.4791 -0.0000 -0.0000 0.0000 -71.2545 24.4939 39.3524 31.3383 -42.0132 -12.2956 -0.0000 0.0000 -28.7424 23.2559 19.9387 8.3375 -7.1250 0.0000 -0.0000 -5.2366 51.4520 -0.8341 -0.0000 -0.0000 0.0000 78.8755 6.2666 82.2474 -33.7842 43.9242 -13.9632 0.0000 0.0000 1.5194 -20.3974 26.0468 -9.2733 7.1250 -0.0000 -0.0000 5.6751 -2.5579 5.4433
0.00 0.00 0.00 -1.4478 20.8804 -2.7183 0.0000 0.0000 0.0000 -10.4251 -4.7413 -17.5520 3.6143 11.6286 34.4304 0.8840 0.5306 -17.9681 1.5469 -7.8505 -22.2609 0.0000 0.0000 0.0000 23.5219 -11.3202 -11.7063 -2.6633 -10.1289 29.3951 -2.4655 -3.5687 -31.1013 -3.4914 -11.4510 33.8165 8.7889 2.8419 5.3177 1.1426 4.6571 -4.2915 -4.2052 1.8878 -6.9358 15.5957 4.0288 -1.2118 -16.3360 6.5495 11.0573 -7.4581 3.2109 4.4923 0.0000 0.0000 0.0000 -78.7740 38.4960 58.7082 20.8502 -31.6531 -5.9711 -0.0000 0.0000 -17.3638 20.0930 17.3857 6.2379 -7.1250 0.0000 -0.0000 -7.6211 48.2694 -0.6180 0.0000 0.0000 0.0000 78.4819 18.2240 83.7610 -32.5203 42.9581 -13.0940 0.0000 0.0000 3.8195 -23.0295 28.6617 -11.5238 7.1250 -0.0000 -0.0000 4.4268 0.6473 4.4899
0.00 0.00 0.00 1.9332 -2.9363 -1.2704 0.0000 0.0000 0.0000 -22.0119 3.2583 -10.6654 2.7733 10.3186 30.0148 1.5793 7.2155 -27.2977 0.0811 -1.8369 -5.0551 0.0000 0.0000 0.0000 13.7179 -0.3665 -11.6067 -3.2323 -11.0619 32.4888 -1.8590 3.2343 -24.9662 -1.2158 -6.9944 19.6987 4.1195 -4.7202 0.2612 4.2999 -5.9266 -6.3449 2.5697 -3.0284 -6.7323 19.1421 10.5883 1.8086 -18.2428 16.9916 16.2219 -7.8352 8.4712 7.9035 -0.0000 0.0000 0.0000 -77.2303 -9.5072 63.8120 15.6019 -24.9779 -3.4762 -0.0000 0.0000 -16.4952 19.8715 23.1528 8.0881 -7.1250 0.0000 -0.0000 -9.7571 54.1669 -2.2143 -0.0000 0.0000 0.0000 67.5396 0.6247 28.0467 -7.9495 13.4710 -0.9403 0.0000 0.0000 35.9943 -24.4852 31.0291 -13.2112 7.1250 -0.0000 -0.0000 3.9389 3.4142 4.1761
0.00 0.00 0.00 -2.3939 2.1264 -3.6036 0.0000 0.0000 0.0000 -21.1226 2.9627 -9.4095 3.2528 11.0935 32.5959 1.5800 5.7722 -26.4297 1.0723 -6.5826 -18.4845 0.0000 0.0000 0.0000 16.4350 -2.4737 -9.6422 -3.4043 -11.3225 33.3753 -2.2234 1.2333 -27.8831 -1.6452 -8.0842 22.9701 -1.6018 -1.8220 0.6900 -1.0505 -2.5729 -6.2881 -0.0295 -1.2146 -6.9076 11.1059 3.6337 -7.1973 -14.1568 6.3067 20.0667 -6.0810 2.6123 8.1330 0.0000 -0.0000 0.0000 -49.3177 -3.8083 63.4127 22.7855 -33.8534 -7.0184 -0.0000 0.0000 -31.9419 23.0091 23.3336 9.5479 -7.1250 0.0000 -0.0000 -6.5859 54.9693 -1.6176 0.0000 -0.0000 0.0000 56.9786 16.1366 -5.9076 -6.8066 11.6005 -0.6922 0.0000 0.0000 51.6479 -23.9912 32.1675 -13.3299 7.1250 -0.0000 -0.0000 4.4020 4.4733 4.7455
